<mxfile host="app.diagrams.net" modified="2021-10-11T08:24:16.582Z" agent="5.0 (Windows NT 10.0; Win64; x64) AppleWebKit/537.36 (KHTML, like Gecko) Chrome/93.0.4577.82 Safari/537.36 OPR/79.0.4143.72" etag="d_vhrzvvceDJhqrMfyhE" version="15.5.0" type="github">
  <diagram id="C5RBs43oDa-KdzZeNtuy" name="Page-1">
    <mxGraphModel dx="1038" dy="589" grid="1" gridSize="10" guides="1" tooltips="1" connect="1" arrows="1" fold="1" page="1" pageScale="1" pageWidth="1169" pageHeight="827" math="0" shadow="0">
      <root>
        <mxCell id="WIyWlLk6GJQsqaUBKTNV-0" />
        <mxCell id="WIyWlLk6GJQsqaUBKTNV-1" parent="WIyWlLk6GJQsqaUBKTNV-0" />
        <mxCell id="zkfFHV4jXpPFQw0GAbJ--0" value="Editor" style="swimlane;fontStyle=2;align=center;verticalAlign=top;childLayout=stackLayout;horizontal=1;startSize=26;horizontalStack=0;resizeParent=1;resizeLast=0;collapsible=1;marginBottom=0;rounded=0;shadow=0;strokeWidth=1;" parent="WIyWlLk6GJQsqaUBKTNV-1" vertex="1">
          <mxGeometry width="90" height="110" as="geometry">
            <mxRectangle x="230" y="140" width="160" height="26" as="alternateBounds" />
          </mxGeometry>
        </mxCell>
        <mxCell id="zkfFHV4jXpPFQw0GAbJ--1" value="Описание" style="text;align=left;verticalAlign=top;spacingLeft=4;spacingRight=4;overflow=hidden;rotatable=0;points=[[0,0.5],[1,0.5]];portConstraint=eastwest;" parent="zkfFHV4jXpPFQw0GAbJ--0" vertex="1">
          <mxGeometry y="26" width="90" height="26" as="geometry" />
        </mxCell>
        <mxCell id="zkfFHV4jXpPFQw0GAbJ--2" value="Настройки" style="text;align=left;verticalAlign=top;spacingLeft=4;spacingRight=4;overflow=hidden;rotatable=0;points=[[0,0.5],[1,0.5]];portConstraint=eastwest;rounded=0;shadow=0;html=0;" parent="zkfFHV4jXpPFQw0GAbJ--0" vertex="1">
          <mxGeometry y="52" width="90" height="26" as="geometry" />
        </mxCell>
        <mxCell id="zkfFHV4jXpPFQw0GAbJ--3" value="Серии (Sets)" style="text;align=left;verticalAlign=top;spacingLeft=4;spacingRight=4;overflow=hidden;rotatable=0;points=[[0,0.5],[1,0.5]];portConstraint=eastwest;rounded=0;shadow=0;html=0;" parent="zkfFHV4jXpPFQw0GAbJ--0" vertex="1">
          <mxGeometry y="78" width="90" height="26" as="geometry" />
        </mxCell>
        <mxCell id="zkfFHV4jXpPFQw0GAbJ--17" value="Sets" style="swimlane;fontStyle=0;align=center;verticalAlign=top;childLayout=stackLayout;horizontal=1;startSize=26;horizontalStack=0;resizeParent=1;resizeLast=0;collapsible=1;marginBottom=0;rounded=0;shadow=0;strokeWidth=1;" parent="WIyWlLk6GJQsqaUBKTNV-1" vertex="1">
          <mxGeometry x="90" y="120" width="120" height="132" as="geometry">
            <mxRectangle x="550" y="140" width="160" height="26" as="alternateBounds" />
          </mxGeometry>
        </mxCell>
        <mxCell id="zkfFHV4jXpPFQw0GAbJ--22" value="список серий (Set )" style="text;align=left;verticalAlign=top;spacingLeft=4;spacingRight=4;overflow=hidden;rotatable=0;points=[[0,0.5],[1,0.5]];portConstraint=eastwest;rounded=0;shadow=0;html=0;" parent="zkfFHV4jXpPFQw0GAbJ--17" vertex="1">
          <mxGeometry y="26" width="120" height="26" as="geometry" />
        </mxCell>
        <mxCell id="C25wQa1lXGfygUCdFG3G-3" value="&lt;ul&gt;&lt;li&gt;Добавление&lt;/li&gt;&lt;li&gt;Удаление&lt;/li&gt;&lt;li&gt;Фокус&lt;/li&gt;&lt;/ul&gt;серии" style="text;html=1;align=left;verticalAlign=middle;resizable=0;points=[];autosize=1;strokeColor=none;fillColor=none;" vertex="1" parent="zkfFHV4jXpPFQw0GAbJ--17">
          <mxGeometry y="52" width="120" height="80" as="geometry" />
        </mxCell>
        <mxCell id="C25wQa1lXGfygUCdFG3G-2" style="edgeStyle=orthogonalEdgeStyle;rounded=0;orthogonalLoop=1;jettySize=auto;html=1;entryX=0.5;entryY=0;entryDx=0;entryDy=0;" edge="1" parent="WIyWlLk6GJQsqaUBKTNV-1" source="zkfFHV4jXpPFQw0GAbJ--3" target="zkfFHV4jXpPFQw0GAbJ--17">
          <mxGeometry relative="1" as="geometry">
            <mxPoint x="200" y="91" as="targetPoint" />
          </mxGeometry>
        </mxCell>
        <mxCell id="C25wQa1lXGfygUCdFG3G-4" value="Set" style="swimlane;fontStyle=0;align=center;verticalAlign=top;childLayout=stackLayout;horizontal=1;startSize=26;horizontalStack=0;resizeParent=1;resizeLast=0;collapsible=1;marginBottom=0;rounded=0;shadow=0;strokeWidth=1;" vertex="1" parent="WIyWlLk6GJQsqaUBKTNV-1">
          <mxGeometry x="220" y="180" width="110" height="120" as="geometry">
            <mxRectangle x="550" y="140" width="160" height="26" as="alternateBounds" />
          </mxGeometry>
        </mxCell>
        <mxCell id="C25wQa1lXGfygUCdFG3G-5" value="Описание" style="text;align=left;verticalAlign=top;spacingLeft=4;spacingRight=4;overflow=hidden;rotatable=0;points=[[0,0.5],[1,0.5]];portConstraint=eastwest;rounded=0;shadow=0;html=0;" vertex="1" parent="C25wQa1lXGfygUCdFG3G-4">
          <mxGeometry y="26" width="110" height="26" as="geometry" />
        </mxCell>
        <mxCell id="C25wQa1lXGfygUCdFG3G-8" value="Настройки" style="text;align=left;verticalAlign=top;spacingLeft=4;spacingRight=4;overflow=hidden;rotatable=0;points=[[0,0.5],[1,0.5]];portConstraint=eastwest;rounded=0;shadow=0;html=0;" vertex="1" parent="C25wQa1lXGfygUCdFG3G-4">
          <mxGeometry y="52" width="110" height="28" as="geometry" />
        </mxCell>
        <mxCell id="C25wQa1lXGfygUCdFG3G-9" value="Рабочие области&#xa;(Workspaces)" style="text;align=left;verticalAlign=top;spacingLeft=4;spacingRight=4;overflow=hidden;rotatable=0;points=[[0,0.5],[1,0.5]];portConstraint=eastwest;rounded=0;shadow=0;html=0;" vertex="1" parent="C25wQa1lXGfygUCdFG3G-4">
          <mxGeometry y="80" width="110" height="40" as="geometry" />
        </mxCell>
        <mxCell id="C25wQa1lXGfygUCdFG3G-7" style="edgeStyle=orthogonalEdgeStyle;rounded=0;orthogonalLoop=1;jettySize=auto;html=1;entryX=0.5;entryY=0;entryDx=0;entryDy=0;" edge="1" parent="WIyWlLk6GJQsqaUBKTNV-1" source="zkfFHV4jXpPFQw0GAbJ--22" target="C25wQa1lXGfygUCdFG3G-4">
          <mxGeometry relative="1" as="geometry" />
        </mxCell>
        <mxCell id="C25wQa1lXGfygUCdFG3G-11" value="Workspaces" style="swimlane;fontStyle=0;align=center;verticalAlign=top;childLayout=stackLayout;horizontal=1;startSize=26;horizontalStack=0;resizeParent=1;resizeLast=0;collapsible=1;marginBottom=0;rounded=0;shadow=0;strokeWidth=1;" vertex="1" parent="WIyWlLk6GJQsqaUBKTNV-1">
          <mxGeometry x="290" y="310" width="140" height="190" as="geometry">
            <mxRectangle x="550" y="140" width="160" height="26" as="alternateBounds" />
          </mxGeometry>
        </mxCell>
        <mxCell id="C25wQa1lXGfygUCdFG3G-12" value="список раб.областей&#xa;(Workspace )" style="text;align=left;verticalAlign=top;spacingLeft=4;spacingRight=4;overflow=hidden;rotatable=0;points=[[0,0.5],[1,0.5]];portConstraint=eastwest;rounded=0;shadow=0;html=0;" vertex="1" parent="C25wQa1lXGfygUCdFG3G-11">
          <mxGeometry y="26" width="140" height="34" as="geometry" />
        </mxCell>
        <mxCell id="C25wQa1lXGfygUCdFG3G-16" value="Данные (V )" style="text;align=left;verticalAlign=top;spacingLeft=4;spacingRight=4;overflow=hidden;rotatable=0;points=[[0,0.5],[1,0.5]];portConstraint=eastwest;rounded=0;shadow=0;html=0;" vertex="1" parent="C25wQa1lXGfygUCdFG3G-11">
          <mxGeometry y="60" width="140" height="34" as="geometry" />
        </mxCell>
        <mxCell id="C25wQa1lXGfygUCdFG3G-13" value="&lt;ul&gt;&lt;li&gt;Добавление&lt;/li&gt;&lt;li&gt;Удаление&lt;/li&gt;&lt;li&gt;Фокус&lt;/li&gt;&lt;/ul&gt;&lt;div&gt;раб. областей&lt;/div&gt;" style="text;html=1;align=left;verticalAlign=middle;resizable=0;points=[];autosize=1;strokeColor=none;fillColor=none;" vertex="1" parent="C25wQa1lXGfygUCdFG3G-11">
          <mxGeometry y="94" width="140" height="80" as="geometry" />
        </mxCell>
        <mxCell id="C25wQa1lXGfygUCdFG3G-14" style="edgeStyle=orthogonalEdgeStyle;rounded=0;orthogonalLoop=1;jettySize=auto;html=1;exitX=1;exitY=0.5;exitDx=0;exitDy=0;entryX=0.5;entryY=0;entryDx=0;entryDy=0;" edge="1" parent="WIyWlLk6GJQsqaUBKTNV-1" source="C25wQa1lXGfygUCdFG3G-9" target="C25wQa1lXGfygUCdFG3G-11">
          <mxGeometry relative="1" as="geometry" />
        </mxCell>
        <mxCell id="C25wQa1lXGfygUCdFG3G-17" value="Workspace" style="swimlane;fontStyle=0;align=center;verticalAlign=top;childLayout=stackLayout;horizontal=1;startSize=26;horizontalStack=0;resizeParent=1;resizeLast=0;collapsible=1;marginBottom=0;rounded=0;shadow=0;strokeWidth=1;" vertex="1" parent="WIyWlLk6GJQsqaUBKTNV-1">
          <mxGeometry x="440" y="380" width="110" height="66" as="geometry">
            <mxRectangle x="550" y="140" width="160" height="26" as="alternateBounds" />
          </mxGeometry>
        </mxCell>
        <mxCell id="C25wQa1lXGfygUCdFG3G-20" value="Слои (Layers)" style="text;align=left;verticalAlign=top;spacingLeft=4;spacingRight=4;overflow=hidden;rotatable=0;points=[[0,0.5],[1,0.5]];portConstraint=eastwest;rounded=0;shadow=0;html=0;" vertex="1" parent="C25wQa1lXGfygUCdFG3G-17">
          <mxGeometry y="26" width="110" height="40" as="geometry" />
        </mxCell>
        <mxCell id="C25wQa1lXGfygUCdFG3G-21" style="edgeStyle=orthogonalEdgeStyle;rounded=0;orthogonalLoop=1;jettySize=auto;html=1;exitX=1;exitY=0.5;exitDx=0;exitDy=0;entryX=0.5;entryY=0;entryDx=0;entryDy=0;" edge="1" parent="WIyWlLk6GJQsqaUBKTNV-1" source="C25wQa1lXGfygUCdFG3G-12" target="C25wQa1lXGfygUCdFG3G-17">
          <mxGeometry relative="1" as="geometry" />
        </mxCell>
        <mxCell id="C25wQa1lXGfygUCdFG3G-25" value="Layer" style="swimlane;fontStyle=0;align=center;verticalAlign=top;childLayout=stackLayout;horizontal=1;startSize=26;horizontalStack=0;resizeParent=1;resizeLast=0;collapsible=1;marginBottom=0;rounded=0;shadow=0;strokeWidth=1;" vertex="1" parent="WIyWlLk6GJQsqaUBKTNV-1">
          <mxGeometry x="640" y="520" width="110" height="130" as="geometry">
            <mxRectangle x="550" y="140" width="160" height="26" as="alternateBounds" />
          </mxGeometry>
        </mxCell>
        <mxCell id="C25wQa1lXGfygUCdFG3G-26" value="Маркеры (Markers)" style="text;align=left;verticalAlign=top;spacingLeft=4;spacingRight=4;overflow=hidden;rotatable=0;points=[[0,0.5],[1,0.5]];portConstraint=eastwest;rounded=0;shadow=0;html=0;" vertex="1" parent="C25wQa1lXGfygUCdFG3G-25">
          <mxGeometry y="26" width="110" height="40" as="geometry" />
        </mxCell>
        <mxCell id="C25wQa1lXGfygUCdFG3G-39" value="Данные (S)" style="text;align=left;verticalAlign=top;spacingLeft=4;spacingRight=4;overflow=hidden;rotatable=0;points=[[0,0.5],[1,0.5]];portConstraint=eastwest;rounded=0;shadow=0;html=0;" vertex="1" parent="C25wQa1lXGfygUCdFG3G-25">
          <mxGeometry y="66" width="110" height="40" as="geometry" />
        </mxCell>
        <mxCell id="C25wQa1lXGfygUCdFG3G-28" value="Marker" style="swimlane;fontStyle=0;align=center;verticalAlign=top;childLayout=stackLayout;horizontal=1;startSize=26;horizontalStack=0;resizeParent=1;resizeLast=0;collapsible=1;marginBottom=0;rounded=0;shadow=0;strokeWidth=1;" vertex="1" parent="WIyWlLk6GJQsqaUBKTNV-1">
          <mxGeometry x="760" y="610" width="110" height="146" as="geometry">
            <mxRectangle x="550" y="140" width="160" height="26" as="alternateBounds" />
          </mxGeometry>
        </mxCell>
        <mxCell id="C25wQa1lXGfygUCdFG3G-31" value="Название" style="text;align=left;verticalAlign=top;spacingLeft=4;spacingRight=4;overflow=hidden;rotatable=0;points=[[0,0.5],[1,0.5]];portConstraint=eastwest;rounded=0;shadow=0;html=0;" vertex="1" parent="C25wQa1lXGfygUCdFG3G-28">
          <mxGeometry y="26" width="110" height="40" as="geometry" />
        </mxCell>
        <mxCell id="C25wQa1lXGfygUCdFG3G-29" value="Цвет&#xa;" style="text;align=left;verticalAlign=top;spacingLeft=4;spacingRight=4;overflow=hidden;rotatable=0;points=[[0,0.5],[1,0.5]];portConstraint=eastwest;rounded=0;shadow=0;html=0;" vertex="1" parent="C25wQa1lXGfygUCdFG3G-28">
          <mxGeometry y="66" width="110" height="40" as="geometry" />
        </mxCell>
        <mxCell id="C25wQa1lXGfygUCdFG3G-30" value="Координаты" style="text;align=left;verticalAlign=top;spacingLeft=4;spacingRight=4;overflow=hidden;rotatable=0;points=[[0,0.5],[1,0.5]];portConstraint=eastwest;rounded=0;shadow=0;html=0;" vertex="1" parent="C25wQa1lXGfygUCdFG3G-28">
          <mxGeometry y="106" width="110" height="40" as="geometry" />
        </mxCell>
        <mxCell id="C25wQa1lXGfygUCdFG3G-32" style="edgeStyle=orthogonalEdgeStyle;rounded=0;orthogonalLoop=1;jettySize=auto;html=1;entryX=0.5;entryY=0;entryDx=0;entryDy=0;" edge="1" parent="WIyWlLk6GJQsqaUBKTNV-1" source="C25wQa1lXGfygUCdFG3G-26" target="C25wQa1lXGfygUCdFG3G-28">
          <mxGeometry relative="1" as="geometry">
            <mxPoint x="817" y="600" as="targetPoint" />
          </mxGeometry>
        </mxCell>
        <mxCell id="C25wQa1lXGfygUCdFG3G-33" value="Layers" style="swimlane;fontStyle=0;align=center;verticalAlign=top;childLayout=stackLayout;horizontal=1;startSize=26;horizontalStack=0;resizeParent=1;resizeLast=0;collapsible=1;marginBottom=0;rounded=0;shadow=0;strokeWidth=1;" vertex="1" parent="WIyWlLk6GJQsqaUBKTNV-1">
          <mxGeometry x="517" y="460" width="110" height="120" as="geometry">
            <mxRectangle x="550" y="140" width="160" height="26" as="alternateBounds" />
          </mxGeometry>
        </mxCell>
        <mxCell id="C25wQa1lXGfygUCdFG3G-34" value="Список слоев " style="text;align=left;verticalAlign=top;spacingLeft=4;spacingRight=4;overflow=hidden;rotatable=0;points=[[0,0.5],[1,0.5]];portConstraint=eastwest;rounded=0;shadow=0;html=0;" vertex="1" parent="C25wQa1lXGfygUCdFG3G-33">
          <mxGeometry y="26" width="110" height="24" as="geometry" />
        </mxCell>
        <mxCell id="C25wQa1lXGfygUCdFG3G-38" value="* Скролл слоев" style="text;html=1;align=center;verticalAlign=middle;resizable=0;points=[];autosize=1;strokeColor=none;fillColor=none;" vertex="1" parent="C25wQa1lXGfygUCdFG3G-33">
          <mxGeometry y="50" width="110" height="20" as="geometry" />
        </mxCell>
        <mxCell id="C25wQa1lXGfygUCdFG3G-35" style="edgeStyle=orthogonalEdgeStyle;rounded=0;orthogonalLoop=1;jettySize=auto;html=1;entryX=0.5;entryY=0;entryDx=0;entryDy=0;" edge="1" parent="WIyWlLk6GJQsqaUBKTNV-1" source="C25wQa1lXGfygUCdFG3G-20" target="C25wQa1lXGfygUCdFG3G-33">
          <mxGeometry relative="1" as="geometry" />
        </mxCell>
        <mxCell id="C25wQa1lXGfygUCdFG3G-36" style="edgeStyle=orthogonalEdgeStyle;rounded=0;orthogonalLoop=1;jettySize=auto;html=1;entryX=0.5;entryY=0;entryDx=0;entryDy=0;" edge="1" parent="WIyWlLk6GJQsqaUBKTNV-1" source="C25wQa1lXGfygUCdFG3G-34" target="C25wQa1lXGfygUCdFG3G-25">
          <mxGeometry relative="1" as="geometry" />
        </mxCell>
      </root>
    </mxGraphModel>
  </diagram>
</mxfile>
